<svg width="50" height="50" viewBox="0 0 50 50" fill="none" xmlns="http://www.w3.org/2000/svg">
<path d="M0 0H50V50H0" fill="white"/>
<path d="M15.5273 12.3047C12.793 10.1563 8.30078 8.59375 8.30078 13.6719C8.30078 14.7461 8.88672 22.2656 9.17969 23.5352C10.4492 27.7344 14.7461 28.8086 18.6523 28.2227C11.9141 29.2969 10.1562 33.1055 13.8672 36.9141C20.8984 44.2383 24.0234 35.1563 24.8047 32.8125L25 32.3242L25.1953 32.8125C25.9766 35.1563 29.1016 44.2383 36.1328 36.9141C39.8438 33.1055 38.0859 29.2969 31.3477 28.2227C35.2539 28.8086 39.5508 27.7344 40.8203 23.5352C41.1133 22.2656 41.6992 14.7461 41.6992 13.6719C41.6992 8.59375 37.207 10.1563 34.4727 12.3047C30.6641 15.1367 26.4648 20.9961 25 24.1211C23.5352 20.9961 19.3359 15.1367 15.5273 12.3047Z" fill="#1185FE"/>
</svg>
