<svg width="35" height="35" viewBox="0 0 35 35" fill="none" xmlns="http://www.w3.org/2000/svg">
<path d="M17.515 8.56716C17.2073 8.56716 16.9028 8.58289 16.6029 8.61367C16.303 8.64444 16.0072 8.69005 15.7164 8.74992C15.4257 8.80979 15.1401 8.88393 14.8602 8.97144L14.0388 9.2736L13.2567 9.65193L12.5187 10.1018L11.8291 10.6185L11.1928 11.1976L10.6142 11.8345L10.0979 12.5245L9.64827 13.2632L9.2704 14.0458C9.15682 14.3135 9.05579 14.5879 8.96833 14.8681C8.88087 15.1482 8.80687 15.4342 8.74699 15.7252C8.68712 16.0161 8.6416 16.3121 8.61076 16.6123C8.57993 16.9126 8.56445 17.2172 8.56445 17.5253C8.56445 17.8333 8.58015 18.1379 8.61076 18.4382C8.6412 18.736 8.68667 19.0322 8.74699 19.3255C8.80687 19.6175 8.88087 19.9024 8.96833 20.1825C9.05579 20.4627 9.1567 20.737 9.2704 21.0048L9.64827 21.7874L10.0979 22.526L10.6142 23.2161L11.1928 23.853L11.8291 24.4321L12.5187 24.9488L13.2567 25.3987L14.0388 25.777L14.8602 26.0792L15.7164 26.3007C16.0094 26.3611 16.3053 26.4066 16.6029 26.4371C16.906 26.468 17.2104 26.4835 17.515 26.4835C17.8228 26.4835 18.1273 26.4677 18.4271 26.4371C18.7247 26.4066 19.0205 26.3611 19.3136 26.3007L20.1699 26.0792L20.9913 25.777L21.7733 25.3987L22.5114 24.9488L23.201 24.4321L23.8374 23.853L24.416 23.2161L24.9323 22.526L25.3819 21.7874L25.7598 21.0048L26.0619 20.1825C26.1493 19.9024 26.2233 19.6164 26.2832 19.3255L26.4194 18.438C26.4502 18.1378 26.4659 17.8331 26.4659 17.5251C26.4659 17.2171 26.4502 16.9125 26.4194 16.6122C26.389 16.3144 26.3435 16.0183 26.2832 15.7251C26.2233 15.433 26.1493 15.1482 26.0619 14.868L25.7598 14.0457L25.3819 13.2631L24.9323 12.5244L24.416 11.8344L23.8374 11.1975L23.201 10.6184L22.5114 10.1017L21.7733 9.65182L20.9913 9.27349L20.1699 8.97132L19.3136 8.74981L18.4271 8.61355C18.1241 8.58255 17.8197 8.56703 17.515 8.56705V8.56716ZM17.515 11.6592C17.7186 11.6592 17.9194 11.6693 18.1172 11.6893L18.7002 11.7777L19.2634 11.9214L19.8028 12.1177L20.3155 12.3637L20.7977 12.6563L21.2484 12.993L21.6639 13.3706L22.0413 13.7865L22.3776 14.2376L22.6701 14.7213L22.9156 15.2346C22.9894 15.4103 23.0549 15.5904 23.1118 15.7745C23.1688 15.9586 23.2167 16.1467 23.2554 16.3384C23.294 16.53 23.3226 16.725 23.3436 16.9231L23.3736 17.5258C23.3736 17.7295 23.3636 17.9305 23.3436 18.1287C23.3236 18.3268 23.2943 18.5218 23.2554 18.7134C23.2164 18.9049 23.1685 19.093 23.1118 19.2773L22.9156 19.8171L22.6701 20.3305L22.3776 20.8141L22.0413 21.2653L21.6639 21.6811L21.2484 22.0588L20.7977 22.3954L20.3155 22.6881L19.8028 22.9341L19.2634 23.1303L18.7002 23.2741L18.1172 23.3624C17.9171 23.3825 17.7161 23.3925 17.5149 23.3925C17.3138 23.3925 17.1127 23.3825 16.9126 23.3624L16.3295 23.2741C16.1381 23.2352 15.9502 23.1871 15.7662 23.1303L15.2269 22.9341L14.7141 22.6881L14.232 22.3954L13.7812 22.0588L13.3657 21.6811L12.9884 21.2653L12.652 20.8141L12.3596 20.3305L12.114 19.8171L11.9178 19.2773L11.7743 18.7134L11.686 18.1287C11.666 17.9284 11.656 17.7272 11.656 17.5258C11.656 17.3245 11.666 17.1233 11.686 16.9231C11.7059 16.725 11.7354 16.5299 11.7743 16.3384C11.8128 16.1482 11.8608 15.96 11.9179 15.7746L12.1141 15.2347L12.3597 14.7214L12.6521 14.2377L12.9885 13.7866L13.3658 13.3707L13.7814 12.9931L14.2321 12.6564L14.7142 12.3638L15.227 12.1178C15.4035 12.0435 15.5835 11.9781 15.7664 11.9216L16.3298 11.7778C16.5212 11.7389 16.716 11.7093 16.9128 11.6894C17.113 11.6693 17.314 11.6592 17.5152 11.6593L17.515 11.6592Z" fill="url(#paint0_radial_384_50)"/>
<path d="M26.8288 6.01889C26.7577 6.0189 26.6867 6.0225 26.616 6.02967C26.5453 6.03683 26.4749 6.04756 26.4053 6.0618C26.3356 6.07603 26.2667 6.09376 26.1989 6.11493C26.131 6.13611 26.0642 6.16071 25.9987 6.18862C25.9333 6.21657 25.8692 6.24779 25.8069 6.28219C25.7445 6.31652 25.6839 6.35397 25.6252 6.39441C25.5666 6.43489 25.5099 6.4783 25.4556 6.52449C25.4012 6.57063 25.3492 6.61948 25.2997 6.67085C25.2502 6.72226 25.2033 6.77614 25.1591 6.83227C25.1149 6.88841 25.0736 6.94675 25.0352 7.00706C24.9968 7.06732 24.9615 7.12948 24.9293 7.1933C24.897 7.25717 24.8679 7.32263 24.8421 7.38943C24.8164 7.45622 24.794 7.52426 24.775 7.59331C24.756 7.66235 24.7404 7.73231 24.7283 7.80292C24.7162 7.87351 24.7077 7.94466 24.7026 8.01612C24.6991 8.06674 24.6973 8.11747 24.6973 8.16821C24.6973 8.2399 24.7008 8.31155 24.7079 8.38288C24.715 8.45417 24.7256 8.52507 24.7398 8.59529C24.7539 8.66552 24.7715 8.73499 24.7925 8.80344C24.8135 8.87191 24.8379 8.93928 24.8656 9.0053C24.8933 9.07133 24.9242 9.13593 24.9583 9.19884C24.9924 9.26175 25.0295 9.32289 25.0696 9.38205C25.1098 9.44117 25.1528 9.49823 25.1986 9.55302C25.2444 9.60785 25.2928 9.66033 25.3438 9.71028C25.3948 9.7602 25.4482 9.80751 25.5039 9.85204C25.5596 9.8966 25.6174 9.93833 25.6772 9.97706C25.7371 10.0158 25.7988 10.0515 25.8621 10.084C25.9255 10.1165 25.9904 10.1458 26.0566 10.1718C26.1228 10.1978 26.1903 10.2204 26.2587 10.2396C26.3272 10.2587 26.3966 10.2744 26.4666 10.2865C26.5366 10.2987 26.6072 10.3074 26.6781 10.3125C26.7283 10.3161 26.7786 10.3179 26.8289 10.3179C26.9 10.3179 26.971 10.3143 27.0417 10.3072C27.1124 10.3 27.1827 10.2893 27.2524 10.2751C27.322 10.2608 27.3909 10.2431 27.4588 10.2219C27.5267 10.2008 27.5935 10.1762 27.659 10.1483C27.7244 10.1203 27.7885 10.0892 27.8508 10.0548C27.9132 10.0204 27.9738 9.98294 28.0325 9.94247C28.0911 9.90202 28.1477 9.85865 28.2021 9.8125C28.2565 9.76632 28.3085 9.71744 28.358 9.66602C28.4075 9.61461 28.4544 9.56074 28.4986 9.5046C28.5427 9.44846 28.5841 9.39013 28.6225 9.32982C28.6608 9.26952 28.6962 9.20732 28.7284 9.14346C28.7607 9.07959 28.7898 9.01413 28.8156 8.94733C28.8413 8.88055 28.8637 8.8125 28.8827 8.74346C28.9017 8.67441 28.9173 8.60446 28.9294 8.53385C28.9414 8.46326 28.95 8.3921 28.955 8.32064C28.9586 8.27003 28.9604 8.2193 28.9604 8.16855C28.9604 8.0969 28.9569 8.02529 28.9498 7.954C28.9427 7.8827 28.932 7.81181 28.9179 7.74158C28.9038 7.67136 28.8862 7.60189 28.8652 7.53344C28.8442 7.46496 28.8198 7.39759 28.7921 7.33158C28.7644 7.26555 28.7335 7.20095 28.6994 7.13803C28.6653 7.07513 28.6282 7.01398 28.588 6.95482C28.5479 6.89566 28.5048 6.83857 28.459 6.78375C28.4133 6.72892 28.3648 6.67643 28.3139 6.62648C28.2629 6.57657 28.2095 6.52926 28.1538 6.48472C28.0981 6.4402 28.0402 6.39851 27.9804 6.35981C27.9206 6.32108 27.8589 6.28539 27.7955 6.25287C27.7322 6.22034 27.6673 6.19103 27.6011 6.16503C27.5349 6.13907 27.4674 6.11646 27.3989 6.0973C27.3305 6.07812 27.2611 6.06242 27.1911 6.05023C27.121 6.03807 27.0505 6.02945 26.9796 6.02439C26.9294 6.0208 26.8791 6.01901 26.8288 6.019V6.01889Z" fill="url(#paint1_radial_384_50)"/>
<path d="M15.8178 0.00032667C14.8443 -0.00124595 13.9755 0.00279738 13.1951 0.0138057L11.1029 0.0699707C10.483 0.0969299 9.9354 0.132087 9.44384 0.17758C9.19806 0.200271 8.96618 0.225658 8.74642 0.253628C8.53728 0.280034 8.32872 0.310784 8.12086 0.345853C7.92296 0.379552 7.73515 0.415945 7.55507 0.455485C7.375 0.495025 7.203 0.537712 7.03705 0.583543C6.87482 0.628358 6.71386 0.677653 6.55434 0.73137C6.39804 0.784165 6.24555 0.840105 6.09496 0.899865C5.79379 1.01938 5.50002 1.1535 5.1975 1.3038C4.96473 1.4195 4.74967 1.53666 4.54538 1.66067C4.34108 1.78469 4.14755 1.91566 3.95806 2.05832C3.76291 2.20595 3.57482 2.36272 3.3944 2.52809C3.2058 2.70018 3.01317 2.88945 2.81303 3.10097C2.56153 3.36528 2.34299 3.61174 2.14901 3.85358C2.05202 3.97445 1.9612 4.09397 1.87565 4.21416C1.79104 4.33261 1.71016 4.45369 1.63312 4.57721C1.55687 4.69965 1.48466 4.82434 1.4156 4.95262C1.34545 5.08311 1.27915 5.21564 1.21679 5.35004C1.0892 5.62458 0.970117 5.92023 0.851263 6.25026C0.763089 6.49424 0.684133 6.74146 0.614564 6.99141C0.543589 7.24685 0.480461 7.51408 0.424174 7.8031C0.367886 8.09213 0.318775 8.40295 0.275606 8.74668C0.229088 9.12346 0.191925 9.50134 0.164153 9.87997C0.132757 10.2963 0.106744 10.7544 0.0854402 11.2642L0.0349834 12.9595L0.00784881 15.026L0 17.5239L0.0229859 21.1563L0.0947467 23.9084L0.150025 24.9834L0.219095 25.8742C0.241236 26.1143 0.268939 26.3538 0.302181 26.5927C0.332455 26.8047 0.364971 26.9903 0.399955 27.1509C0.470939 27.4775 0.554875 27.8011 0.651566 28.121C0.744146 28.4273 0.850019 28.7294 0.968884 29.0264C1.08572 29.3173 1.21354 29.5979 1.35258 29.868C1.49162 30.138 1.64187 30.3975 1.80333 30.6468C1.96479 30.896 2.13746 31.1351 2.3218 31.3639C2.50593 31.5927 2.70178 31.8118 2.90856 32.0203C3.11565 32.2293 3.33408 32.4281 3.56427 32.617C3.79719 32.8081 4.0393 32.9877 4.28973 33.1551C4.52217 33.3108 4.75214 33.4533 4.98379 33.5842C5.21544 33.7151 5.44912 33.8338 5.68929 33.9417C5.92947 34.0497 6.17569 34.1469 6.43291 34.2342C6.69013 34.3216 6.95811 34.3994 7.24134 34.4683C7.52457 34.5373 7.8244 34.5979 8.14172 34.6507C8.45903 34.7034 8.79822 34.7487 9.16061 34.7877C9.523 34.8267 9.90961 34.8589 10.325 34.8859C10.7405 34.9128 11.1845 34.9344 11.6616 34.9517C12.3986 34.9784 13.5142 34.994 14.8008 35L18.9657 34.9916L22.9097 34.9362L24.4092 34.894L25.3862 34.8436C25.5959 34.8266 25.8011 34.8063 25.9991 34.7826C26.1971 34.7589 26.3924 34.7319 26.5826 34.7011C26.7727 34.6703 26.9586 34.6359 27.1413 34.5977C27.3218 34.5601 27.5014 34.518 27.68 34.4716C27.8567 34.4267 28.0309 34.3756 28.2034 34.3213C28.3758 34.267 28.5465 34.2084 28.7161 34.1455C28.8867 34.0822 29.0558 34.0147 29.2231 33.9432C29.3917 33.8713 29.56 33.7945 29.7288 33.7129C29.9882 33.5878 30.197 33.4834 30.3803 33.3815C30.5527 33.2868 30.7188 33.1808 30.8775 33.0643C31.034 32.9489 31.1896 32.8174 31.369 32.6519C31.5484 32.4863 31.7517 32.2868 32.0034 32.0345C32.2247 31.813 32.4112 31.6204 32.5721 31.4453C32.733 31.2702 32.8686 31.1126 32.9875 30.9607C33.1008 30.8166 33.2063 30.6666 33.3036 30.5112C33.3986 30.3595 33.4861 30.202 33.5752 30.0274C33.7093 29.7645 33.8286 29.5211 33.9355 29.2862C34.0392 29.0599 34.134 28.8295 34.2196 28.5956C34.3039 28.3636 34.3769 28.1276 34.4384 27.8885C34.5016 27.6425 34.5561 27.3828 34.6032 27.0979C34.6503 26.813 34.6901 26.503 34.7246 26.1568C34.7592 25.8106 34.7885 25.428 34.8143 24.9981L34.8827 23.555L34.9415 21.7603L34.9834 19.7609L34.9996 17.6702L34.9621 13.5639L34.912 11.7248L34.8436 10.1456L34.7584 8.9145C34.7274 8.57189 34.694 8.30208 34.6586 8.11965C34.6194 7.91809 34.5756 7.71745 34.5272 7.5179C34.4801 7.32372 34.4283 7.13072 34.3719 6.93906C34.3169 6.75233 34.2571 6.56704 34.1927 6.38337C34.129 6.20195 34.0615 6.02436 33.9909 5.85058C33.9202 5.67681 33.8438 5.50708 33.7642 5.34094C33.6845 5.17481 33.6011 5.01272 33.5135 4.85433C33.426 4.69594 33.3347 4.54149 33.2393 4.39086C33.1439 4.24022 33.0445 4.09341 32.941 3.95052C32.8381 3.80809 32.7308 3.66892 32.6192 3.53322C32.5082 3.39825 32.393 3.26684 32.2737 3.13916C32.1545 3.01165 32.0314 2.88795 31.9044 2.76825C31.7774 2.64851 31.6465 2.53258 31.5115 2.42048C31.376 2.308 31.2371 2.19977 31.0949 2.09595C30.9512 1.99107 30.8043 1.8906 30.6544 1.79469C30.5026 1.6974 30.3478 1.60465 30.1905 1.51656C30.0303 1.42698 29.8677 1.34203 29.7027 1.26179C29.4289 1.12845 29.1757 1.01017 28.9271 0.905257C28.6828 0.801134 28.4337 0.708656 28.1806 0.628138C27.9261 0.547822 27.6611 0.478964 27.3696 0.419542C27.0781 0.360119 26.7602 0.310581 26.4004 0.268458C26.0406 0.226334 25.6388 0.192299 25.1793 0.163992C24.7198 0.135684 24.203 0.113441 23.6129 0.0954685L21.6074 0.0505372L19.0692 0.0205452L15.8189 0.000549493L15.8178 0.00032667ZM17.5058 3.08962L22.1931 3.11636L23.9613 3.15051C24.4482 3.16421 24.8198 3.18028 25.0377 3.19881C25.3214 3.22274 25.5916 3.25273 25.8501 3.28867C26.0981 3.32299 26.3449 3.36566 26.5901 3.41662C26.8256 3.46604 27.0501 3.52221 27.2651 3.58556C27.48 3.64892 27.6853 3.71991 27.8823 3.79843C28.0793 3.87695 28.2677 3.96333 28.449 4.05791C28.6289 4.15178 28.8037 4.25508 28.9727 4.36738C29.1408 4.47915 29.303 4.59956 29.4604 4.72931C29.6178 4.85905 29.7704 4.99811 29.9195 5.14684C30.0768 5.30376 30.2219 5.46361 30.3556 5.62851C30.4889 5.79239 30.6122 5.96415 30.7249 6.14287C30.8388 6.32413 30.9415 6.51227 31.0323 6.7062C31.1251 6.9039 31.2086 7.11284 31.2835 7.33491C31.3584 7.55699 31.4251 7.79299 31.4842 8.04518C31.5461 8.31253 31.5979 8.58213 31.6396 8.85339C31.6844 9.14095 31.7228 9.44762 31.7553 9.77596C31.7878 10.1043 31.8147 10.4544 31.8369 10.8291C31.8546 11.1295 31.8701 11.5261 31.8832 11.9944L31.9161 13.5911L31.9412 17.5025L31.9126 21.4101L31.8783 23.0023L31.8311 24.1603C31.7984 24.7025 31.7638 25.1583 31.7226 25.5551C31.7018 25.7534 31.6794 25.937 31.6545 26.1092C31.6312 26.2719 31.6036 26.4339 31.5716 26.5951C31.5425 26.7422 31.5086 26.8883 31.4702 27.0332C31.4333 27.1715 31.3918 27.3085 31.3458 27.444C31.2994 27.5801 31.249 27.7149 31.1946 27.8479C31.137 27.9885 31.0762 28.1277 31.0123 28.2655C30.9555 28.3885 30.8957 28.5081 30.8325 28.6246C30.77 28.7399 30.7036 28.853 30.6334 28.9638C30.5638 29.0736 30.491 29.1802 30.4147 29.2834C30.3389 29.3863 30.2594 29.4864 30.1763 29.5836C30.0936 29.6803 30.0073 29.774 29.9177 29.8644C29.828 29.9548 29.7349 30.0421 29.6385 30.1263C29.542 30.2106 29.442 30.2915 29.3385 30.3694C29.235 30.4474 29.128 30.5222 29.0173 30.5939C28.9066 30.6655 28.7925 30.7343 28.6746 30.7999C28.5568 30.8655 28.4352 30.9281 28.3102 30.9878C28.183 31.0483 28.0541 31.1051 27.9235 31.1579C27.7885 31.2124 27.652 31.2632 27.5142 31.3101C27.2339 31.4058 26.9382 31.4898 26.627 31.5623C26.3026 31.6373 25.9752 31.6987 25.6456 31.7462C25.5189 31.7648 25.2277 31.7822 24.8106 31.7984L23.2211 31.8426L18.7148 31.9013L13.9981 31.9087L12.1457 31.8889L10.943 31.8514L10.0561 31.7889C9.78067 31.7657 9.52457 31.7398 9.28462 31.7105C9.04467 31.6812 8.8212 31.6485 8.61097 31.6117C8.41174 31.5772 8.21372 31.536 8.01726 31.4881C7.83812 31.4445 7.66081 31.3936 7.48578 31.3356C7.31703 31.2794 7.15568 31.2176 6.9987 31.1497C6.84172 31.0817 6.68923 31.0072 6.5382 30.9259C6.38716 30.8446 6.2377 30.7563 6.08655 30.66C5.97252 30.5875 5.8623 30.514 5.75623 30.4361C5.65016 30.3583 5.54767 30.2807 5.449 30.1994C5.35033 30.118 5.25559 30.0342 5.1642 29.948C5.07343 29.8621 4.98576 29.773 4.90138 29.6808C4.81728 29.5889 4.73689 29.4944 4.65975 29.3964C4.5823 29.2981 4.50851 29.1969 4.43852 29.0931C4.36749 28.9878 4.30028 28.8798 4.23703 28.7696C4.17312 28.6584 4.11235 28.5434 4.0546 28.4248C3.99589 28.3039 3.9411 28.1811 3.89034 28.0567C3.83876 27.9299 3.78987 27.7992 3.7439 27.6642C3.65195 27.394 3.57122 27.1065 3.50103 26.7998C3.43084 26.4931 3.37097 26.1674 3.32029 25.8203C3.2696 25.4732 3.22879 25.1052 3.19627 24.7141C3.17228 24.4259 3.15322 23.9772 3.13864 23.411L3.10814 21.3975L3.11935 16.2646L3.2076 11.3598L3.27487 9.63173L3.313 9.06053C3.32623 8.90798 3.33991 8.79498 3.35392 8.72713C3.40012 8.50393 3.44665 8.29623 3.49475 8.10179C3.53969 7.91835 3.58968 7.7362 3.64467 7.55553C3.69692 7.38501 3.75197 7.22528 3.81084 7.07397C3.8676 6.9274 3.93087 6.78343 4.00044 6.64251C4.06839 6.50547 4.14139 6.37427 4.22066 6.24655C4.29993 6.11883 4.38549 5.99493 4.47877 5.8717C4.57206 5.74848 4.67253 5.62682 4.78185 5.50348C4.89118 5.38015 5.00924 5.25557 5.13729 5.12718C5.28653 4.97682 5.44192 4.83273 5.60307 4.69527C5.75523 4.56558 5.91391 4.44377 6.07848 4.33031C6.24028 4.21798 6.40623 4.11801 6.57901 4.02612C6.7518 3.93423 6.93143 3.85122 7.12036 3.77652C7.30929 3.70182 7.50775 3.63499 7.71799 3.57433C7.93886 3.51226 8.16218 3.45931 8.38739 3.41561C8.6242 3.3691 8.8757 3.32855 9.14424 3.29317C9.41278 3.25778 9.69848 3.22723 10.0039 3.20072C10.217 3.1823 10.5841 3.1659 11.0674 3.15208L12.8267 3.11726L17.5066 3.08861L17.5058 3.08962Z" fill="url(#paint2_radial_384_50)"/>
<defs>
<radialGradient id="paint0_radial_384_50" cx="0" cy="0" r="1" gradientTransform="matrix(72.9499 -12.2705 7.4483 44.3584 5.57594 37.5512)" gradientUnits="userSpaceOnUse">
<stop stop-color="#FED576"/>
<stop offset="0.263" stop-color="#F47133"/>
<stop offset="0.609" stop-color="#BC3081"/>
<stop offset="1" stop-color="#4C63D2"/>
</radialGradient>
<radialGradient id="paint1_radial_384_50" cx="0" cy="0" r="1" gradientTransform="matrix(72.9499 -12.2705 7.4483 44.3583 5.57603 37.5513)" gradientUnits="userSpaceOnUse">
<stop stop-color="#FED576"/>
<stop offset="0.263" stop-color="#F47133"/>
<stop offset="0.609" stop-color="#BC3081"/>
<stop offset="1" stop-color="#4C63D2"/>
</radialGradient>
<radialGradient id="paint2_radial_384_50" cx="0" cy="0" r="1" gradientTransform="matrix(72.9499 -12.2705 7.4483 44.3584 5.57604 37.5514)" gradientUnits="userSpaceOnUse">
<stop stop-color="#FED576"/>
<stop offset="0.263" stop-color="#F47133"/>
<stop offset="0.609" stop-color="#BC3081"/>
<stop offset="1" stop-color="#4C63D2"/>
</radialGradient>
</defs>
</svg>
