<svg width="50" height="50" viewBox="0 0 50 50" fill="none" xmlns="http://www.w3.org/2000/svg">
<path fill-rule="evenodd" clip-rule="evenodd" d="M5 0H45C47.7616 0 50 2.2384 50 5V45C50 47.7616 47.7616 50 45 50H5C2.2384 50 0 47.7616 0 45V5C0 2.2384 2.2384 0 5 0Z" fill="#010101"/>
<path d="M30.9628 44.5962C31.7028 44.5962 32.3026 44.0014 32.3026 43.2676C32.3026 42.5339 31.7028 41.939 30.9628 41.939C30.2229 41.939 29.623 42.5339 29.623 43.2676C29.623 44.0014 30.2229 44.5962 30.9628 44.5962Z" fill="#010101"/>
<path fill-rule="evenodd" clip-rule="evenodd" d="M32.233 20.2372C34.4218 21.801 37.1034 22.7212 39.9994 22.7212V17.151C39.4513 17.1512 38.9046 17.0941 38.3684 16.9804V21.365C35.4726 21.365 32.7914 20.4448 30.602 18.881V30.248C30.602 35.9344 25.99 40.5438 20.301 40.5438C18.1784 40.5438 16.2054 39.9024 14.5664 38.8024C16.437 40.714 19.0456 41.9 21.9316 41.9C27.621 41.9 32.2332 37.2906 32.2332 31.604L32.233 20.2372ZM34.245 14.6176C33.1264 13.3962 32.392 11.8176 32.233 10.0724V9.35602H30.6874C31.0764 11.574 32.4034 13.469 34.245 14.6176ZM18.1646 34.439C17.5397 33.62 17.2019 32.618 17.2034 31.5878C17.2034 28.987 19.313 26.8784 21.9156 26.8784C22.4006 26.8781 22.8827 26.9525 23.345 27.099V21.4044C22.8048 21.3304 22.2597 21.2991 21.7146 21.3106V25.743C21.2521 25.5965 20.7698 25.5221 20.2846 25.5224C17.682 25.5224 15.5726 27.631 15.5726 30.232C15.5726 32.071 16.627 33.6634 18.1646 34.439Z" fill="#EE1D52"/>
<path fill-rule="evenodd" clip-rule="evenodd" d="M30.6025 18.881C32.7919 20.4448 35.4731 21.365 38.3689 21.365V16.9804C36.7525 16.6364 35.3215 15.792 34.2455 14.6176C32.4039 13.469 31.0769 11.574 30.6879 9.35602H26.6281V31.6038C26.6189 34.1974 24.5129 36.2974 21.9159 36.2974C20.3855 36.2974 19.0259 35.5684 18.1649 34.439C16.6273 33.6634 15.5729 32.071 15.5729 30.232C15.5729 27.631 17.6823 25.5224 20.2849 25.5224C20.7835 25.5224 21.2641 25.6 21.7149 25.743V21.3106C16.1259 21.426 11.6309 25.9904 11.6309 31.604C11.6309 34.4062 12.7503 36.9466 14.5669 38.8026C16.2059 39.9026 18.1789 40.544 20.3015 40.544C25.9905 40.544 30.6025 35.9344 30.6025 30.2482V18.881Z" fill="white"/>
<path fill-rule="evenodd" clip-rule="evenodd" d="M38.3688 16.9804V15.7948C36.9111 15.797 35.4822 15.389 34.2454 14.6174C35.3402 15.8154 36.7817 16.6415 38.3688 16.9804ZM30.6878 9.356C30.6506 9.14405 30.6221 8.93067 30.6024 8.7164V8H24.9968V30.248C24.9878 32.8414 22.882 34.9414 20.2848 34.9414C19.5222 34.9414 18.8024 34.7606 18.1648 34.439C19.0258 35.5684 20.3854 36.2974 21.9158 36.2974C24.5126 36.2974 26.6188 34.1974 26.628 31.6038V9.356H30.6878ZM21.715 21.3106V20.0484C21.2466 19.9844 20.7744 19.9524 20.3016 19.9526C14.612 19.9526 10 24.5622 10 30.248C10 33.8128 11.8126 36.9544 14.567 38.8024C12.7504 36.9464 11.631 34.406 11.631 31.6038C11.631 25.9904 16.1258 21.426 21.715 21.3106Z" fill="#69C9D0"/>
</svg>
