<svg width="50" height="50" viewBox="0 0 50 50" fill="none" xmlns="http://www.w3.org/2000/svg">
<path d="M42.5 0H7.5C3.35786 0 0 3.35786 0 7.5V42.5C0 46.6421 3.35786 50 7.5 50H42.5C46.6421 50 50 46.6421 50 42.5V7.5C50 3.35786 46.6421 0 42.5 0Z" fill="#1DA1F2"/>
<path d="M42.6758 14.8437C41.5039 15.4297 40.1367 15.8203 38.7695 16.0156C40.2344 15.1367 41.3086 13.7695 41.8945 12.1094C40.5273 12.8906 39.0625 13.4766 37.5 13.7695C36.4373 12.6811 35.0502 11.9666 33.547 11.7334C32.0438 11.5002 30.5054 11.7608 29.1629 12.4761C27.8203 13.1914 26.746 14.3228 26.101 15.7006C25.4561 17.0783 25.2753 18.628 25.5859 20.1172C20.1172 19.8242 14.8438 17.2852 11.4258 12.8906C10.9607 13.6334 10.6473 14.461 10.5035 15.3255C10.3598 16.1901 10.3886 17.0745 10.5883 17.9279C10.7881 18.7812 11.1547 19.5866 11.6672 20.2976C12.1797 21.0085 12.8278 21.611 13.5742 22.0703C12.5 22.0703 11.4258 21.875 10.4492 21.3867C10.5469 24.6094 12.793 27.4414 15.918 28.125C14.9414 28.418 13.8672 28.418 12.793 28.2227C13.7695 31.0547 16.4062 33.0078 19.3359 33.1055C16.5039 35.4492 12.6953 36.5234 9.08203 35.9375C12.1015 37.9523 15.6249 39.0812 19.253 39.1962C22.8812 39.3112 26.469 38.4078 29.61 36.5883C32.751 34.7687 35.3196 32.1058 37.0248 28.9013C38.7299 25.6967 39.5035 22.0787 39.2578 18.457C40.625 17.4805 41.7969 16.3086 42.6758 14.8437Z" fill="white"/>
</svg>
