<svg width="35" height="35" viewBox="0 0 35 35" fill="none" xmlns="http://www.w3.org/2000/svg">
<path d="M30.2836 0H4.71635C2.11164 0 0 2.11153 0 4.71632V30.2835C0 32.8883 2.11155 34.9998 4.71635 34.9998H17.326L17.3475 22.4928H14.0981C13.6758 22.4928 13.3331 22.1513 13.3315 21.7291L13.3159 17.6975C13.3143 17.2729 13.658 16.9279 14.0826 16.9279H17.3261V13.0324C17.3261 8.51172 20.087 6.05018 24.1198 6.05018H27.429C27.8524 6.05018 28.1957 6.39342 28.1957 6.8169V10.2163C28.1957 10.6396 27.8526 10.9828 27.4294 10.983L25.3986 10.984C23.2055 10.984 22.7808 12.0261 22.7808 13.5555V16.928H27.5999C28.0591 16.928 28.4153 17.3289 28.3612 17.7849L27.8834 21.8165C27.8377 22.2023 27.5105 22.493 27.1221 22.493H22.8023L22.7808 35H30.2837C32.8885 35 35 32.8885 35 30.2838V4.71632C34.9999 2.11153 32.8884 0 30.2836 0Z" fill="#475993"/>
</svg>
